<svg xmlns="http://www.w3.org/2000/svg" viewBox="0 0 1200 900" role="img" aria-labelledby="title desc">
  <title id="title">Burger Buns (4pc)</title>
  <desc id="desc">Illustrated showcase art for Burger Buns (4pc) in the Bread & Bakery category.</desc>
  <defs>
    <linearGradient id="bg" x1="0%" y1="0%" x2="100%" y2="100%">
      <stop offset="0%" stop-color="#4A2D16" />
      <stop offset="100%" stop-color="#8B5E34" />
    </linearGradient>
    <radialGradient id="glow" cx="35%" cy="30%" r="65%">
      <stop offset="0%" stop-color="#FEF3C7" stop-opacity="0.55" />
      <stop offset="100%" stop-color="#FEF3C7" stop-opacity="0" />
    </radialGradient>
    <filter id="shadow" x="-30%" y="-30%" width="160%" height="160%">
      <feDropShadow dx="0" dy="20" stdDeviation="24" flood-color="#08131f" flood-opacity="0.28" />
    </filter>
  </defs>
  <rect width="1200" height="900" fill="url(#bg)" rx="48" />
  <circle cx="220" cy="180" r="220" fill="url(#glow)" />
  <circle cx="1030" cy="780" r="240" fill="#FEF3C7" opacity="0.08" />
  <circle cx="940" cy="160" r="120" fill="#F59E0B" opacity="0.12" />
  <rect x="56" y="58" width="270" height="54" rx="27" fill="#ffffff" opacity="0.11" />
  <text x="88" y="94" fill="#F8FAFC" font-family="Segoe UI, Arial, sans-serif" font-size="30" font-weight="700" letter-spacing="1.5">Bread & Bakery</text>
  
  <g filter="url(#shadow)">
    <ellipse cx="600" cy="792" rx="246" ry="30" fill="#08131f" opacity="0.16" />
    <ellipse cx="494" cy="540" rx="130" ry="106" fill="#F59E0B"/>
    <ellipse cx="706" cy="540" rx="130" ry="106" fill="#D97706"/>
    <ellipse cx="494" cy="558" rx="114" ry="84" fill="#FEF3C7"/>
    <ellipse cx="706" cy="558" rx="114" ry="84" fill="#FDE68A"/>
    <g fill="#F8FAFC" opacity="0.7">
      <ellipse cx="452" cy="478" rx="10" ry="5" transform="rotate(18 452 478)" />
      <ellipse cx="506" cy="452" rx="10" ry="5" transform="rotate(-12 506 452)" />
      <ellipse cx="540" cy="496" rx="10" ry="5" transform="rotate(14 540 496)" />
      <ellipse cx="666" cy="468" rx="10" ry="5" transform="rotate(12 666 468)" />
      <ellipse cx="718" cy="446" rx="10" ry="5" transform="rotate(-8 718 446)" />
      <ellipse cx="754" cy="492" rx="10" ry="5" transform="rotate(16 754 492)" />
    </g>
  </g>

</svg>
