<svg xmlns="http://www.w3.org/2000/svg" viewBox="0 0 1200 900" role="img" aria-labelledby="title desc">
  <title id="title">Cucumber</title>
  <desc id="desc">Illustrated showcase art for Cucumber in the Vegetables category.</desc>
  <defs>
    <linearGradient id="bg" x1="0%" y1="0%" x2="100%" y2="100%">
      <stop offset="0%" stop-color="#0B3B2E" />
      <stop offset="100%" stop-color="#0E6B52" />
    </linearGradient>
    <radialGradient id="glow" cx="35%" cy="30%" r="65%">
      <stop offset="0%" stop-color="#A7F3D0" stop-opacity="0.55" />
      <stop offset="100%" stop-color="#A7F3D0" stop-opacity="0" />
    </radialGradient>
    <filter id="shadow" x="-30%" y="-30%" width="160%" height="160%">
      <feDropShadow dx="0" dy="20" stdDeviation="24" flood-color="#08131f" flood-opacity="0.28" />
    </filter>
  </defs>
  <rect width="1200" height="900" fill="url(#bg)" rx="48" />
  <circle cx="220" cy="180" r="220" fill="url(#glow)" />
  <circle cx="1030" cy="780" r="240" fill="#A7F3D0" opacity="0.08" />
  <circle cx="940" cy="160" r="120" fill="#27B26A" opacity="0.12" />
  <rect x="56" y="58" width="270" height="54" rx="27" fill="#ffffff" opacity="0.11" />
  <text x="88" y="94" fill="#F8FAFC" font-family="Segoe UI, Arial, sans-serif" font-size="30" font-weight="700" letter-spacing="1.5">Vegetables</text>
  
  <g filter="url(#shadow)">
    <ellipse cx="600" cy="782" rx="260" ry="34" fill="#08131f" opacity="0.16" />
    <rect x="300" y="410" width="540" height="148" rx="74" fill="#15803D"/>
    <rect x="330" y="438" width="480" height="92" rx="46" fill="#22C55E" opacity="0.85"/>
    <circle cx="860" cy="496" r="86" fill="#A7F3D0"/>
    <circle cx="860" cy="496" r="62" fill="#DCFCE7"/>
    <circle cx="860" cy="496" r="34" fill="#BBF7D0"/>
    <circle cx="412" cy="470" r="10" fill="#86EFAC"/>
    <circle cx="472" cy="520" r="8" fill="#86EFAC"/>
    <circle cx="552" cy="466" r="9" fill="#86EFAC"/>
    <circle cx="632" cy="520" r="10" fill="#86EFAC"/>
    <circle cx="712" cy="468" r="8" fill="#86EFAC"/>
  </g>

</svg>
