<svg xmlns="http://www.w3.org/2000/svg" viewBox="0 0 1200 900" role="img" aria-labelledby="title desc">
  <title id="title">Eggs (12pc)</title>
  <desc id="desc">Illustrated showcase art for Eggs (12pc) in the Other category.</desc>
  <defs>
    <linearGradient id="bg" x1="0%" y1="0%" x2="100%" y2="100%">
      <stop offset="0%" stop-color="#2A2540" />
      <stop offset="100%" stop-color="#51437A" />
    </linearGradient>
    <radialGradient id="glow" cx="35%" cy="30%" r="65%">
      <stop offset="0%" stop-color="#EDE9FE" stop-opacity="0.55" />
      <stop offset="100%" stop-color="#EDE9FE" stop-opacity="0" />
    </radialGradient>
    <filter id="shadow" x="-30%" y="-30%" width="160%" height="160%">
      <feDropShadow dx="0" dy="20" stdDeviation="24" flood-color="#08131f" flood-opacity="0.28" />
    </filter>
  </defs>
  <rect width="1200" height="900" fill="url(#bg)" rx="48" />
  <circle cx="220" cy="180" r="220" fill="url(#glow)" />
  <circle cx="1030" cy="780" r="240" fill="#EDE9FE" opacity="0.08" />
  <circle cx="940" cy="160" r="120" fill="#A78BFA" opacity="0.12" />
  <rect x="56" y="58" width="270" height="54" rx="27" fill="#ffffff" opacity="0.11" />
  <text x="88" y="94" fill="#F8FAFC" font-family="Segoe UI, Arial, sans-serif" font-size="30" font-weight="700" letter-spacing="1.5">Other</text>
  
  <g filter="url(#shadow)">
    <ellipse cx="600" cy="792" rx="250" ry="30" fill="#08131f" opacity="0.16" />
    <rect x="404" y="484" width="392" height="190" rx="38" fill="#A16207"/>
    <rect x="430" y="512" width="340" height="138" rx="28" fill="#B45309"/>
    <g fill="#FFFBEB">
      <ellipse cx="494" cy="516" rx="38" ry="52"/>
      <ellipse cx="578" cy="506" rx="38" ry="52"/>
      <ellipse cx="662" cy="518" rx="38" ry="52"/>
      <ellipse cx="536" cy="588" rx="38" ry="52"/>
      <ellipse cx="620" cy="596" rx="38" ry="52"/>
      <ellipse cx="704" cy="588" rx="38" ry="52"/>
    </g>
  </g>

</svg>
