<svg xmlns="http://www.w3.org/2000/svg" viewBox="0 0 1200 900" role="img" aria-labelledby="title desc">
  <title id="title">Instant Noodles Pack</title>
  <desc id="desc">Illustrated showcase art for Instant Noodles Pack in the Ready-to-Eat category.</desc>
  <defs>
    <linearGradient id="bg" x1="0%" y1="0%" x2="100%" y2="100%">
      <stop offset="0%" stop-color="#3B1F2F" />
      <stop offset="100%" stop-color="#7A3556" />
    </linearGradient>
    <radialGradient id="glow" cx="35%" cy="30%" r="65%">
      <stop offset="0%" stop-color="#FFE4E6" stop-opacity="0.55" />
      <stop offset="100%" stop-color="#FFE4E6" stop-opacity="0" />
    </radialGradient>
    <filter id="shadow" x="-30%" y="-30%" width="160%" height="160%">
      <feDropShadow dx="0" dy="20" stdDeviation="24" flood-color="#08131f" flood-opacity="0.28" />
    </filter>
  </defs>
  <rect width="1200" height="900" fill="url(#bg)" rx="48" />
  <circle cx="220" cy="180" r="220" fill="url(#glow)" />
  <circle cx="1030" cy="780" r="240" fill="#FFE4E6" opacity="0.08" />
  <circle cx="940" cy="160" r="120" fill="#FB7185" opacity="0.12" />
  <rect x="56" y="58" width="270" height="54" rx="27" fill="#ffffff" opacity="0.11" />
  <text x="88" y="94" fill="#F8FAFC" font-family="Segoe UI, Arial, sans-serif" font-size="30" font-weight="700" letter-spacing="1.5">Ready-to-Eat</text>
  
  <g filter="url(#shadow)">
    <ellipse cx="600" cy="792" rx="246" ry="30" fill="#08131f" opacity="0.16" />
    <rect x="446" y="280" width="308" height="402" rx="42" fill="#FDE68A"/>
    <rect x="470" y="304" width="260" height="354" rx="34" fill="#FB7185" opacity="0.25"/>
    <path d="M520 392 C550 362 584 356 624 370 C670 386 692 430 682 474 C672 518 636 550 590 556 C542 560 500 534 484 490" fill="none" stroke="#F59E0B" stroke-width="18" stroke-linecap="round"/>
    <path d="M506 440 C536 404 590 394 634 414 C676 432 698 474 694 514" fill="none" stroke="#FCD34D" stroke-width="18" stroke-linecap="round"/>
    <path d="M512 500 C548 470 592 462 638 474 C666 482 688 502 700 528" fill="none" stroke="#FBBF24" stroke-width="18" stroke-linecap="round"/>
    <text x="600" y="618" text-anchor="middle" fill="#9F1239" font-family="Segoe UI, Arial, sans-serif" font-size="58" font-weight="800">NOODLES</text>
  </g>

</svg>
