<svg xmlns="http://www.w3.org/2000/svg" viewBox="0 0 1200 900" role="img" aria-labelledby="title desc">
  <title id="title">Turmeric Powder</title>
  <desc id="desc">Illustrated showcase art for Turmeric Powder in the Spices & Condiments category.</desc>
  <defs>
    <linearGradient id="bg" x1="0%" y1="0%" x2="100%" y2="100%">
      <stop offset="0%" stop-color="#4A1D0A" />
      <stop offset="100%" stop-color="#A94410" />
    </linearGradient>
    <radialGradient id="glow" cx="35%" cy="30%" r="65%">
      <stop offset="0%" stop-color="#FDE68A" stop-opacity="0.55" />
      <stop offset="100%" stop-color="#FDE68A" stop-opacity="0" />
    </radialGradient>
    <filter id="shadow" x="-30%" y="-30%" width="160%" height="160%">
      <feDropShadow dx="0" dy="20" stdDeviation="24" flood-color="#08131f" flood-opacity="0.28" />
    </filter>
  </defs>
  <rect width="1200" height="900" fill="url(#bg)" rx="48" />
  <circle cx="220" cy="180" r="220" fill="url(#glow)" />
  <circle cx="1030" cy="780" r="240" fill="#FDE68A" opacity="0.08" />
  <circle cx="940" cy="160" r="120" fill="#F59E0B" opacity="0.12" />
  <rect x="56" y="58" width="270" height="54" rx="27" fill="#ffffff" opacity="0.11" />
  <text x="88" y="94" fill="#F8FAFC" font-family="Segoe UI, Arial, sans-serif" font-size="30" font-weight="700" letter-spacing="1.5">Spices & Condiments</text>
  
  <g filter="url(#shadow)">
    <ellipse cx="600" cy="790" rx="246" ry="30" fill="#08131f" opacity="0.16" />
    <ellipse cx="600" cy="610" rx="210" ry="66" fill="#7C2D12"/>
    <ellipse cx="600" cy="574" rx="190" ry="50" fill="#92400E"/>
    <path d="M450 574 C500 494 700 494 750 574 C700 626 500 626 450 574 Z" fill="#F59E0B"/>
    <path d="M770 402 L854 360 L898 472 L814 514 Z" fill="#D1A06B"/>
    <path d="M818 518 C792 560 754 584 700 590" stroke="#D1A06B" stroke-width="18" stroke-linecap="round"/>
  </g>

</svg>
