<svg xmlns="http://www.w3.org/2000/svg" viewBox="0 0 1200 900" role="img" aria-labelledby="title desc">
  <title id="title">White Bread</title>
  <desc id="desc">Illustrated showcase art for White Bread in the Bread & Bakery category.</desc>
  <defs>
    <linearGradient id="bg" x1="0%" y1="0%" x2="100%" y2="100%">
      <stop offset="0%" stop-color="#4A2D16" />
      <stop offset="100%" stop-color="#8B5E34" />
    </linearGradient>
    <radialGradient id="glow" cx="35%" cy="30%" r="65%">
      <stop offset="0%" stop-color="#FEF3C7" stop-opacity="0.55" />
      <stop offset="100%" stop-color="#FEF3C7" stop-opacity="0" />
    </radialGradient>
    <filter id="shadow" x="-30%" y="-30%" width="160%" height="160%">
      <feDropShadow dx="0" dy="20" stdDeviation="24" flood-color="#08131f" flood-opacity="0.28" />
    </filter>
  </defs>
  <rect width="1200" height="900" fill="url(#bg)" rx="48" />
  <circle cx="220" cy="180" r="220" fill="url(#glow)" />
  <circle cx="1030" cy="780" r="240" fill="#FEF3C7" opacity="0.08" />
  <circle cx="940" cy="160" r="120" fill="#F59E0B" opacity="0.12" />
  <rect x="56" y="58" width="270" height="54" rx="27" fill="#ffffff" opacity="0.11" />
  <text x="88" y="94" fill="#F8FAFC" font-family="Segoe UI, Arial, sans-serif" font-size="30" font-weight="700" letter-spacing="1.5">Bread & Bakery</text>
  
  <g filter="url(#shadow)">
    <ellipse cx="600" cy="794" rx="248" ry="28" fill="#08131f" opacity="0.16" />
    <path d="M438 420 C438 334 504 278 598 278 C692 278 758 334 758 420 V604 C758 666 708 714 646 714 H550 C488 714 438 666 438 604 Z" fill="#F59E0B"/>
    <path d="M470 430 C470 364 520 320 598 320 C676 320 726 364 726 430 V590 C726 634 692 670 646 670 H550 C504 670 470 634 470 590 Z" fill="#FEF3C7"/>
    <path d="M514 360 C540 332 576 318 598 318 C620 318 656 332 682 360" fill="none" stroke="#FCD34D" stroke-width="22" stroke-linecap="round"/>
    <circle cx="562" cy="466" r="12" fill="#F59E0B" opacity="0.55"/>
    <circle cx="628" cy="526" r="10" fill="#F59E0B" opacity="0.55"/>
    <circle cx="590" cy="588" r="11" fill="#F59E0B" opacity="0.55"/>
  </g>

</svg>
